<svg width="451" height="203" viewBox="0 0 451 203" fill="none" xmlns="http://www.w3.org/2000/svg">
<path d="M107.555 100.625C106.781 100.625 106.142 100.374 105.639 99.8704C105.136 99.3286 104.885 98.6706 104.885 97.8966L104.885 70.7223C104.885 69.9095 105.136 69.2709 105.639 68.8064C106.142 68.3033 106.781 68.0517 107.555 68.0517C108.368 68.0517 109.006 68.3033 109.471 68.8064C109.974 69.2709 110.226 69.9095 110.226 70.7223L110.226 97.8966C110.226 98.6706 109.974 99.3286 109.471 99.8704C109.006 100.374 108.368 100.625 107.555 100.625ZM131.88 122.744C131.106 122.744 130.448 122.493 129.906 121.99C129.403 121.448 129.152 120.809 129.152 120.074V105.444C129.152 103.16 128.726 101.302 127.875 99.8704C127.023 98.3997 125.881 97.316 124.449 96.6193C123.017 95.884 121.372 95.5163 119.515 95.5163C117.773 95.5163 116.205 95.8646 114.812 96.5613C113.419 97.2579 112.296 98.1868 111.445 99.3479C110.632 100.509 110.136 102.481 109.388 103.978L105.646 102.481C105.685 100.043 107.4 98.748 108.6 96.8516C109.8 94.9164 111.425 93.4069 113.477 92.3232C115.528 91.2008 117.831 90.6396 120.385 90.6396C123.095 90.6396 125.514 91.2202 127.642 92.3813C129.771 93.5037 131.455 95.1679 132.693 97.3741C133.932 99.5802 134.551 102.27 134.551 105.444V120.074C134.551 120.809 134.28 121.448 133.738 121.99C133.235 122.493 132.616 122.744 131.88 122.744ZM107.555 100.625C106.781 100.625 106.142 100.374 105.639 99.8704C105.136 99.3673 104.885 98.7287 104.885 97.9546V93.6004C104.885 92.7877 105.136 92.1491 105.639 91.6846C106.142 91.1815 106.781 90.9299 107.555 90.9299C108.368 90.9299 109.006 91.1815 109.471 91.6846C109.974 92.1491 110.226 92.7877 110.226 93.6004L110.226 97.9546C110.226 98.7287 109.974 99.3673 109.471 99.8704C109.006 100.374 108.368 100.625 107.555 100.625Z" fill="#2F2F2F"/>
<path d="M187.546 122.686C185.92 122.686 184.469 122.241 183.191 121.351C181.914 120.461 180.908 119.242 180.173 117.693C179.476 116.107 179.128 114.288 179.128 112.236V79.9574C179.128 79.1833 179.36 78.5641 179.824 78.0996C180.327 77.5965 180.966 77.3449 181.74 77.3449C182.553 77.3449 183.191 77.5965 183.656 78.0996C184.159 78.5641 184.411 79.1833 184.411 79.9574V112.236C184.411 113.746 184.701 114.984 185.281 115.952C185.901 116.919 186.655 117.403 187.546 117.403H188.997C189.732 117.403 190.313 117.655 190.739 118.158C191.164 118.622 191.377 119.261 191.377 120.074C191.377 120.848 191.048 121.486 190.39 121.99C189.771 122.454 188.958 122.686 187.952 122.686H187.546Z" fill="#2F2F2F"/>
<path d="M204.554 122.686C202.929 122.686 201.477 122.241 200.2 121.351C198.923 120.461 197.916 119.242 197.181 117.693C196.484 116.107 196.136 114.288 196.136 112.236V79.9574C196.136 79.1833 196.368 78.5641 196.833 78.0996C197.336 77.5965 197.974 77.3449 198.749 77.3449C199.561 77.3449 200.2 77.5965 200.664 78.0996C201.168 78.5641 201.419 79.1833 201.419 79.9574V112.236C201.419 113.746 201.709 114.984 202.29 115.952C202.909 116.919 203.664 117.403 204.554 117.403H206.006C206.741 117.403 207.321 117.655 207.747 118.158C208.173 118.622 208.386 119.261 208.386 120.074C208.386 120.848 208.057 121.486 207.399 121.99C206.78 122.454 205.967 122.686 204.961 122.686H204.554Z" fill="#2F2F2F"/>
<path d="M226.946 122.918C223.85 122.918 221.082 122.241 218.644 120.887C216.244 119.493 214.348 117.597 212.954 115.197C211.6 112.759 210.923 109.972 210.923 106.837C210.923 103.663 211.6 100.877 212.954 98.4771C214.348 96.0388 216.244 94.1423 218.644 92.7877C221.082 91.3943 223.85 90.6977 226.946 90.6977C230.042 90.6977 232.79 91.3943 235.19 92.7877C237.628 94.1423 239.525 96.0388 240.879 98.4771C242.273 100.877 242.989 103.663 243.027 106.837C243.027 109.972 242.331 112.759 240.937 115.197C239.544 117.597 237.647 119.493 235.248 120.887C232.848 122.241 230.081 122.918 226.946 122.918ZM226.946 118.158C229.075 118.158 230.952 117.674 232.577 116.707C234.203 115.739 235.48 114.404 236.409 112.701C237.338 110.998 237.802 109.043 237.802 106.837C237.802 104.631 237.338 102.676 236.409 100.974C235.48 99.2318 234.203 97.8772 232.577 96.9096C230.952 95.942 229.075 95.4582 226.946 95.4582C224.856 95.4582 222.979 95.942 221.314 96.9096C219.689 97.8772 218.412 99.2318 217.483 100.974C216.554 102.676 216.089 104.631 216.089 106.837C216.089 109.043 216.554 110.998 217.483 112.701C218.412 114.404 219.689 115.739 221.314 116.707C222.979 117.674 224.856 118.158 226.946 118.158Z" fill="#2F2F2F"/>
<path d="M251.802 136.385C251.299 136.385 250.874 136.211 250.525 135.862C250.216 135.553 250.061 135.146 250.061 134.643V106.602C250.138 103.545 250.874 100.835 252.267 98.4745C253.699 96.0749 255.634 94.1784 258.072 92.785C260.511 91.3917 263.239 90.695 266.258 90.695C269.355 90.695 272.122 91.4111 274.56 92.8431C277.037 94.2364 278.972 96.1716 280.366 98.6487C281.798 101.087 282.514 103.854 282.514 106.951C282.514 110.008 281.798 112.776 280.366 115.253C278.972 117.691 277.037 119.626 274.56 121.058C272.122 122.451 269.355 123.148 266.258 123.148C263.472 123.148 260.956 122.548 258.711 121.348C256.505 120.149 254.783 118.542 253.544 116.53V134.643C253.544 135.146 253.389 135.553 253.08 135.862C252.77 136.211 252.344 136.385 251.802 136.385ZM266.258 119.897C268.697 119.897 270.864 119.336 272.761 118.213C274.696 117.052 276.225 115.504 277.347 113.569C278.469 111.595 279.031 109.389 279.031 106.951C279.031 104.474 278.469 102.267 277.347 100.332C276.225 98.3584 274.696 96.8102 272.761 95.6878C270.864 94.5267 268.697 93.9462 266.258 93.9462C263.859 93.9462 261.691 94.5267 259.756 95.6878C257.821 96.8102 256.292 98.3584 255.17 100.332C254.086 102.267 253.544 104.474 253.544 106.951C253.544 109.389 254.086 111.595 255.17 113.569C256.292 115.504 257.821 117.052 259.756 118.213C261.691 119.336 263.859 119.897 266.258 119.897ZM305.735 123.148C302.639 123.148 299.852 122.451 297.375 121.058C294.937 119.626 293.002 117.691 291.57 115.253C290.176 112.776 289.48 110.008 289.48 106.951C289.48 103.854 290.176 101.087 291.57 98.6487C293.002 96.1716 294.937 94.2364 297.375 92.8431C299.852 91.4111 302.639 90.695 305.735 90.695C308.831 90.695 311.599 91.4111 314.037 92.8431C316.475 94.2364 318.391 96.1716 319.785 98.6487C321.217 101.087 321.933 103.854 321.933 106.951C321.933 110.008 321.217 112.776 319.785 115.253C318.391 117.691 316.475 119.626 314.037 121.058C311.599 122.451 308.831 123.148 305.735 123.148ZM305.735 119.897C308.174 119.897 310.341 119.336 312.237 118.213C314.173 117.052 315.682 115.504 316.766 113.569C317.888 111.595 318.449 109.37 318.449 106.893C318.449 104.454 317.888 102.267 316.766 100.332C315.682 98.3584 314.173 96.8102 312.237 95.6878C310.341 94.5267 308.174 93.9462 305.735 93.9462C303.336 93.9462 301.168 94.5267 299.233 95.6878C297.298 96.8102 295.769 98.3584 294.647 100.332C293.524 102.267 292.963 104.474 292.963 106.951C292.963 109.389 293.524 111.595 294.647 113.569C295.769 115.504 297.298 117.052 299.233 118.213C301.168 119.336 303.336 119.897 305.735 119.897ZM345.138 123.148C342.042 123.148 339.255 122.451 336.778 121.058C334.34 119.626 332.405 117.691 330.973 115.253C329.579 112.776 328.883 109.989 328.883 106.893C328.883 103.796 329.579 101.029 330.973 98.5906C332.405 96.1523 334.34 94.2364 336.778 92.8431C339.255 91.4111 342.042 90.695 345.138 90.695C347.925 90.695 350.421 91.2949 352.627 92.4948C354.872 93.6946 356.614 95.3008 357.852 97.3134V79.2C357.852 78.6582 358.007 78.2325 358.317 77.9228C358.665 77.6132 359.091 77.4584 359.594 77.4584C360.136 77.4584 360.562 77.6132 360.871 77.9228C361.181 78.2325 361.336 78.6582 361.336 79.2V107.241C361.297 110.26 360.562 112.969 359.129 115.369C357.697 117.768 355.762 119.665 353.324 121.058C350.924 122.451 348.196 123.148 345.138 123.148ZM345.138 119.897C347.576 119.897 349.744 119.336 351.64 118.213C353.576 117.052 355.085 115.504 356.169 113.569C357.291 111.595 357.852 109.37 357.852 106.893C357.852 104.416 357.291 102.209 356.169 100.274C355.085 98.339 353.576 96.8102 351.64 95.6878C349.744 94.5267 347.576 93.9462 345.138 93.9462C342.738 93.9462 340.571 94.5267 338.636 95.6878C336.701 96.8102 335.172 98.339 334.049 100.274C332.927 102.209 332.366 104.416 332.366 106.893C332.366 109.37 332.927 111.595 334.049 113.569C335.172 115.504 336.701 117.052 338.636 118.213C340.571 119.336 342.738 119.897 345.138 119.897Z" fill="#F5BF56"/>
<path d="M167.744 119.096C165.202 121.061 162.537 122.264 159.748 122.707C156.967 123.096 154.292 122.767 151.722 121.72C149.128 120.643 146.873 118.864 144.956 116.383C143.015 113.872 141.832 111.265 141.405 108.561C140.956 105.827 141.235 103.215 142.244 100.723C143.23 98.2002 144.932 96.004 147.351 94.1343C149.709 92.3119 152.16 91.2739 154.703 91.0204C157.223 90.7362 159.664 91.1732 162.027 92.3312C164.365 93.4586 166.47 95.232 168.339 97.6513C168.742 98.1719 168.901 98.7579 168.818 99.4094C168.741 100.007 168.412 100.53 167.83 100.98L148.95 115.571L146.323 112.171L165.249 97.545L164.395 100.333C163.11 98.7333 161.664 97.5272 160.058 96.7143C158.451 95.9014 156.797 95.5654 155.096 95.7061C153.395 95.8468 151.748 96.5325 150.156 97.7632C148.41 99.1123 147.202 100.682 146.531 102.472C145.891 104.239 145.767 106.071 146.158 107.97C146.549 109.869 147.419 111.691 148.769 113.437C150.118 115.182 151.707 116.448 153.538 117.235C155.376 117.967 157.276 118.21 159.239 117.965C161.232 117.696 163.132 116.864 164.939 115.467C165.919 114.71 166.788 113.745 167.545 112.573C168.333 111.377 168.843 110.298 169.077 109.334C169.246 108.666 169.575 108.143 170.065 107.764C170.531 107.355 171.066 107.161 171.67 107.183C172.461 107.257 173.073 107.542 173.506 108.039C173.915 108.506 174.032 109.1 173.857 109.822C173.455 111.454 172.686 113.149 171.55 114.907C170.421 116.611 169.152 118.008 167.744 119.096Z" fill="#2F2F2F"/>
<g clip-path="url(#clip0_34_99)">
<path d="M66.6274 103.627C65.7747 101.661 65.3394 99.5414 65.3486 97.4012V73.0291C65.3351 70.8674 65.7704 68.726 66.6274 66.7377C68.2949 62.8473 71.4238 59.75 75.354 58.0994C77.3625 57.2506 79.5258 56.8197 81.7097 56.8335C83.883 56.8184 86.0358 57.2494 88.0324 58.0994C90.9699 59.3598 93.4687 61.4468 95.2182 64.101C96.9678 66.7553 97.891 69.8599 97.8732 73.0291L97.8073 97.4066C97.8201 101.658 96.1307 105.741 93.1092 108.761C91.629 110.22 89.8843 111.388 87.9665 112.206C85.97 113.056 83.8171 113.487 81.6438 113.472C79.46 113.485 77.2968 113.054 75.2882 112.206C71.3798 110.576 68.2711 107.497 66.6274 103.627Z" fill="#F5BF56"/>
<path d="M78.7064 79.2846C78.7064 78.4577 79.3777 77.7878 80.2046 77.7895L97.8565 77.8255V80.7797H80.2016C79.3758 80.7797 78.7064 80.1103 78.7064 79.2846Z" fill="white"/>
<path d="M78.7064 79.2846C78.7064 78.4577 79.3777 77.7878 80.2046 77.7895L97.8565 77.8255V80.7797H80.2016C79.3758 80.7797 78.7064 80.1103 78.7064 79.2846Z" fill="white"/>
<path d="M78.7064 79.2846C78.7064 78.4577 79.3777 77.7878 80.2046 77.7895L97.8565 77.8255V80.7797H80.2016C79.3758 80.7797 78.7064 80.1103 78.7064 79.2846Z" fill="white"/>
<path d="M78.7064 86.7679C78.7064 85.941 79.3777 85.2711 80.2046 85.2728L97.8565 85.3088V88.263H80.2016C79.3758 88.263 78.7064 87.5937 78.7064 86.7679Z" fill="white"/>
<path d="M78.7064 86.7679C78.7064 85.941 79.3777 85.2711 80.2046 85.2728L97.8565 85.3088V88.263H80.2016C79.3758 88.263 78.7064 87.5937 78.7064 86.7679Z" fill="white"/>
<path d="M78.7064 86.7679C78.7064 85.941 79.3777 85.2711 80.2046 85.2728L97.8565 85.3088V88.263H80.2016C79.3758 88.263 78.7064 87.5937 78.7064 86.7679Z" fill="white"/>
<path d="M78.6228 71.7998C78.6228 70.9732 79.2929 70.3031 80.1195 70.3031H97.6523L97.6705 70.3565C97.9931 71.3021 98.0621 72.3158 97.8706 73.2964H80.1195C79.2929 73.2964 78.6228 72.6263 78.6228 71.7998Z" fill="white"/>
</g>
<path d="M110.136 90.508C110.136 94.832 110.878 99.862 109.411 103.857C107.945 107.852 105.795 111.481 103.085 114.539C100.375 117.596 97.1573 120.022 93.6164 121.677C90.0756 123.331 86.2805 124.183 82.4479 124.183C78.6152 124.183 74.8201 123.331 71.2793 121.677C67.7384 120.022 64.5211 117.596 61.811 114.539C59.1009 111.481 56.9512 107.852 55.4845 103.857C54.3104 100.659 53.5924 97.277 53.3527 93.8369C53.2536 92.414 54.4192 91.2564 55.8455 91.2564C57.2718 91.2564 58.4166 92.4147 58.5371 93.8359C58.7637 96.51 59.342 99.1362 60.2564 101.627C61.4635 104.915 63.2328 107.902 65.4633 110.418C67.6937 112.935 70.3416 114.931 73.2559 116.293C76.1701 117.655 79.2935 118.356 82.4479 118.356C85.6022 118.356 88.7256 117.655 91.6399 116.293C94.5541 114.931 97.202 112.935 99.4325 110.418C100.388 109.34 101.259 108.175 102.038 106.938C104.13 103.611 104.796 99.6367 104.859 95.7072C104.898 93.3142 104.898 90.9004 104.898 89.0114L110.136 90.508Z" fill="#2F2F2F"/>
<circle cx="376.542" cy="115.203" r="5.98665" fill="#2F2F2F"/>
<defs>
<clipPath id="clip0_34_99">
<rect width="40.4099" height="58.3698" fill="white" transform="translate(60.7465 55.3365)"/>
</clipPath>
</defs>
</svg>
