<?xml version="1.0" encoding="UTF-8"?>
<svg version="1.1" viewBox="0 0 1804 812" width="1280" height="1280" xmlns="http://www.w3.org/2000/svg">
<path transform="translate(319,228)" d="m0 0h17l13 3 14 7 11 9 8 10 7 14 2 10-1 1-72 1-2 2 1 7 2 1 73 1v17l-1 1-73 1-2 3 1 5 2 2 73 1v17l-1 1-73 1-2 3 1 5 3 2 72 1v43l-3 14-8 16-11 12-11 8-14 6-11 2h-13l-14-3-12-5-11-8-9-9-7-11-5-15-1-5v-115l3-13 7-14 9-10 7-7 11-6 10-4z" fill="#F5BF55"/>
<path transform="translate(430,272)" d="m0 0 7 2 4 4 1 4v94h3l8-6 8-4 13-3h17l12 3 14 7 8 7 9 14 4 13 1 8v69l-4 6-4 2-9-1-5-6-1-70-2-9-6-11-8-6-9-4-5-1h-15l-12 4-9 6-5 7-12 29-8 14-9 12-11 12-15 12-19 10-15 5-9 2-9 1h-15l-19-3-19-7-16-9-13-11-10-10-9-12-10-17-6-15-5-19-2-11v-12l5-6h9l5 4 2 4 3 19 5 16 9 19 9 12 9 10 15 11 17 8 18 4h21l17-4 14-6 12-8 10-9 9-10 8-13 5-13 3-18 1-112 3-5z" fill="#333"/>
<path transform="translate(619,364)" d="m0 0h12l12 3 14 7 12 11 6 7 1 2v6l-6 7-13 10-17 13-18 14-13 10-7 5 2 4 10 6 11 3h13l13-4 11-7 7-8 6-11 3-8 4-4 7-1 5 3 2 2v8l-5 12-6 10-9 10-10 8-14 7-11 3h-21l-13-4-10-5-11-9-9-11-6-10-5-15-1-5v-15l3-13 6-12 10-12 11-8 12-6zm-3 20-10 4-9 7-7 8-4 8-2 10 1 13 4 11 4-1 26-20 17-13 16-13v-3l-10-7-10-4z" fill="#333"/>
<path transform="translate(902,363)" d="m0 0h13l15 3 16 8 10 9 6 7 8 16 3 15v15l-3 14-4 10-7 10-11 11-10 6-11 4-13 2h-11l-16-3-12-5-11-8-9-10-8-16-3-15v-16l3-15 4-9 7-11 8-8 15-9 13-4zm-2 20-10 3-10 6-8 9-5 11-2 9v15l3 11 4 8 9 10 8 5 10 3h18l10-3 11-7 9-12 4-12 1-7v-9l-3-13-6-11-5-6-11-7-10-3z" fill="#333"/>
<path transform="translate(1435,311)" d="m0 0h8l3 4v120l-2 12-4 11-7 11-6 7-12 9-11 5-12 3-13 1-15-2-14-5-13-9-10-11-7-13-3-11-1-7v-16l3-14 4-9 7-11 8-8 11-7 11-5 16-3h10l12 2 13 5 10 7 9 9v2h2v-74zm-64 66-13 4-10 7-9 9-6 11-3 12v16l3 12 5 10 9 10 8 6 11 5 13 2 13-1 12-4 10-7 8-8 6-10 3-10 1-7v-11l-3-14-6-12-11-11-10-6-10-3z" fill="#F5BF55"/>
<path transform="translate(1060,363)" d="m0 0h10l13 2 15 6 10 7 10 10 8 14 4 14v25l-4 14-7 12-9 10-7 6-14 7-12 3-13 1-15-2-13-5-11-7-8-9-2-2v72l-2 4-2 1h-7l-3-3v-125l4-15 5-10 8-10 9-8 15-8 10-3zm-5 14-10 3-10 6-10 9-7 12-3 11v20l3 11 5 10 9 10 11 7 12 4 13 1 13-2 14-7 10-9 7-11 4-12 1-15-2-12-5-12-7-9-8-7-11-6-8-2z" fill="#F5BF55"/>
<path transform="translate(1219,363)" d="m0 0h9l13 2 15 6 11 8 7 7 7 11 5 12 2 8v22l-4 15-7 13-11 12-10 7-12 5-9 2-13 1-16-2-13-5-10-6-12-12-6-10-4-10-2-8v-25l4-14 6-11 9-10 8-7 14-7 10-3zm-6 14-10 3-10 6-10 9-7 12-3 10-1 7v9l3 14 6 12 9 10 11 7 12 4 13 1 13-2 14-7 9-8 7-10 4-11 1-5v-19l-4-13-7-12-10-9-11-6-8-2z" fill="#F5BF55"/>
<path transform="translate(724,310)" d="m0 0h7l5 3 2 3 1 137 2 9 4 6 2 1 11 1 6 3 2 4v8l-5 5-5 2h-10l-11-4-7-5-7-10-3-9-1-5v-143l5-5z" fill="#303030"/>
<path transform="translate(792,310)" d="m0 0h8l5 4 1 2 1 138 3 10 5 5 11 1 6 3 2 4v8l-5 5-5 2h-9l-10-3-8-6-6-7-4-8-2-9v-143l5-5z" fill="#303030"/>
<path transform="translate(1500,438)" d="m0 0h13l10 5 6 9 1 2v15l-4 8-7 6-9 3h-7l-8-3-6-4-5-8-1-3v-13l4-8 8-7z" fill="#313131"/>
</svg>
